<?xml version="1.0" encoding="UTF-8" standalone="no"?>
<!--part of the rodentia icon theme by sixsixfive released under CC0 (https://creativecommons.org/publicdomain/zero/1.0/) on openclipart-->
<svg xmlns="http://www.w3.org/2000/svg" xmlns:xlink="http://www.w3.org/1999/xlink" viewBox="0 0 48 48">
 <defs id="0">
  <linearGradient id="2">
   <stop id="J" stop-color="#d3d7cf"/>
   <stop id="K" offset="1" stop-color="#eeeeec"/>
  </linearGradient>
  <linearGradient id="3">
   <stop id="L" stop-color="#2e3436"/>
   <stop id="M" offset="1" stop-color="#2e3436" stop-opacity="0"/>
  </linearGradient>
  <linearGradient id="4">
   <stop id="N" stop-color="#eeeeec"/>
   <stop id="O" offset="1" stop-color="#eeeeec" stop-opacity="0"/>
  </linearGradient>
  <linearGradient id="5">
   <stop id="P" stop-color="#fff" stop-opacity="0.8"/>
   <stop id="Q" offset="1" stop-color="#fff" stop-opacity="0"/>
  </linearGradient>
  <radialGradient cx="60.05" cy="51.39" r="15.03" id="6" xlink:href="#7" gradientUnits="userSpaceOnUse" gradientTransform="matrix(-1.404511,1.1888571,-1,-1.1813958,199.73811,11.750541)"/>
  <linearGradient id="7">
   <stop id="R" stop-color="#eee"/>
   <stop id="S" offset="1" stop-color="#dcdcdc"/>
  </linearGradient>
  <radialGradient cx="24.377" cy="45.941" r="23.08" id="8" xlink:href="#3" gradientUnits="userSpaceOnUse" gradientTransform="matrix(1,0,0,0.1455399,0,39.255173)"/>
  <linearGradient y1="4.219" x2="0" y2="43.781" id="9" xlink:href="#5" gradientUnits="userSpaceOnUse"/>
  <linearGradient x1="4.094" y1="-58.01" x2="15.298" y2="33.906" id="A" xlink:href="#4" gradientUnits="userSpaceOnUse" gradientTransform="translate(0,-1.4999995)"/>
  <radialGradient cx="24" cy="49.32" r="17.813" id="B" xlink:href="#2" gradientUnits="userSpaceOnUse" gradientTransform="matrix(2.5730421,-2.450169,2.4540785,2.5771488,-158.79416,-18.984771)"/>
 </defs>
 <g id="1">
  <path d="m 47.453955,45.941494 a 23.076923,3.3586134 0 1 1 -46.153847,0 23.076923,3.3586134 0 1 1 46.153847,0 z" transform="translate(-0.37703133,-2.8001078)" id="C" opacity="0.8" fill="url(#8)"/>
  <rect width="42" height="42" x="3" y="1.5" id="D" fill="#2e3436" rx="6"/>
  <path d="M 9,4.09375 C 6.2608771,4.09375 4.09375,6.2608771 4.09375,9 l 0,30 c 0,2.739123 2.1671271,4.90625 4.90625,4.90625 l 30,0 c 2.739123,0 4.90625,-2.167127 4.90625,-4.90625 l 0,-30 C 43.90625,6.2608771 41.739123,4.09375 39,4.09375 l -30,0 z" transform="translate(0,-1.4999995)" id="E" fill="#555753"/>
  <path d="M 9,4.71875 C 6.5943852,4.71875 4.71875,6.5943852 4.71875,9 l 0,30 c 0,2.405615 1.8756352,4.28125 4.28125,4.28125 l 30,0 c 2.405615,0 4.28125,-1.875635 4.28125,-4.28125 l 0,-30 C 43.28125,6.5943852 41.405615,4.71875 39,4.71875 l -30,0 z" transform="translate(0,-1.4999995)" id="F" opacity="0.8" fill="none" stroke="url(#9)" stroke-linecap="round" stroke-dashoffset="30"/>
  <path d="M 5.625,4.8125 A 1.0407518,1.0407518 0 0 0 4.8125,5.84375 l 0,36.3125 a 1.0407518,1.0407518 0 0 0 1.03125,1.03125 l 12.25,0 A 1.0407518,1.0407518 0 0 0 19.125,42.15625 l 0,-36.3125 A 1.0407518,1.0407518 0 0 0 18.09375,4.8125 l -12.25,0 a 1.0407518,1.0407518 0 0 0 -0.21875,0 z m 24.0625,0 A 1.0407518,1.0407518 0 0 0 28.875,5.84375 l 0,36.3125 a 1.0407518,1.0407518 0 0 0 1.03125,1.03125 l 12.25,0 a 1.0407518,1.0407518 0 0 0 1.03125,-1.03125 l 0,-36.3125 A 1.0407518,1.0407518 0 0 0 42.15625,4.8125 l -12.25,0 a 1.0407518,1.0407518 0 0 0 -0.21875,0 z" transform="matrix(0.7555869,0,0,0.7555869,5.8659603,4.3680922)" id="G" fill="#2e3436"/>
  <path d="m 6.1875,6.1875 0,35.625 11.5625,0 0,-35.625 -11.5625,0 z m 24.0625,0 0,35.625 11.5625,0 0,-35.625 -11.5625,0 z" transform="matrix(0.7555869,0,0,0.7555869,5.8659603,4.3680922)" id="H" fill="url(#B)"/>
  <path d="m 9,2.5937505 c -2.7391229,0 -4.90625,2.1671271 -4.90625,4.90625 l 0,17.1562505 c 12.085208,-5.133143 25.680845,-9.569523 39.8125,-12.53125 l 0,-4.6250005 c 0,-2.7391229 -2.167127,-4.90625 -4.90625,-4.90625 l -30,0 0,0 z" id="I" opacity="0.6" fill="url(#A)"/>
 </g>
</svg>
